<svg xmlns="http://www.w3.org/2000/svg" viewBox="0 0 640 360" role="img" aria-label="Navigation marks and lights">
  <rect width="640" height="360" fill="#f6fcff"/>
  <rect x="0" y="230" width="640" height="130" fill="#d8eef8"/>
  <path d="M110 230 C180 190 250 190 320 230 C390 270 460 270 530 230" stroke="#93c7dd" stroke-width="10" fill="none"/>
  <rect x="120" y="110" width="18" height="120" rx="9" fill="#35a35a"/>
  <polygon points="129,70 160,110 98,110" fill="#35a35a"/>
  <rect x="502" y="110" width="18" height="120" rx="9" fill="#d14a4a"/>
  <polygon points="511,70 542,110 480,110" fill="#d14a4a"/>
  <circle cx="320" cy="108" r="36" fill="#ffffff" stroke="#5f99ba" stroke-width="4"/>
  <circle cx="304" cy="108" r="9" fill="#d14a4a"/>
  <circle cx="336" cy="108" r="9" fill="#35a35a"/>
  <path d="M276 250 L364 250 L386 226 L252 226 Z" fill="#2f7aa8"/>
  <rect x="306" y="206" width="28" height="20" fill="#1e5c82"/>
</svg>
